<mxfile host="app.diagrams.net" agent="Mozilla/5.0 (Windows NT 10.0; Win64; x64) AppleWebKit/537.36 (KHTML, like Gecko) Chrome/141.0.0.0 Safari/537.36" version="28.2.8">
  <diagram name="Sequence Diagram - Thêm sản phẩm vào giỏ hàng" id="iHaxdqygjTolNKJ0VNo1">
    <mxGraphModel dx="1042" dy="574" grid="0" gridSize="10" guides="1" tooltips="1" connect="1" arrows="1" fold="1" page="1" pageScale="1" pageWidth="850" pageHeight="1100" math="0" shadow="0">
      <root>
        <mxCell id="0" />
        <mxCell id="1" parent="0" />
        <mxCell id="icSrvoCAMqPunUTu-JmH-17" value="" style="shape=umlActor;verticalLabelPosition=bottom;verticalAlign=top;html=1;" vertex="1" parent="1">
          <mxGeometry x="144" y="164" width="30" height="60" as="geometry" />
        </mxCell>
        <mxCell id="icSrvoCAMqPunUTu-JmH-19" value="" style="endArrow=none;dashed=1;html=1;rounded=0;" edge="1" parent="1" source="icSrvoCAMqPunUTu-JmH-21" target="icSrvoCAMqPunUTu-JmH-17">
          <mxGeometry width="50" height="50" relative="1" as="geometry">
            <mxPoint x="159" y="513" as="sourcePoint" />
            <mxPoint x="552" y="321" as="targetPoint" />
          </mxGeometry>
        </mxCell>
        <mxCell id="icSrvoCAMqPunUTu-JmH-22" value="" style="endArrow=none;dashed=1;html=1;rounded=0;" edge="1" parent="1" target="icSrvoCAMqPunUTu-JmH-21">
          <mxGeometry width="50" height="50" relative="1" as="geometry">
            <mxPoint x="159" y="513" as="sourcePoint" />
            <mxPoint x="159" y="224" as="targetPoint" />
          </mxGeometry>
        </mxCell>
        <mxCell id="icSrvoCAMqPunUTu-JmH-21" value="" style="rounded=0;whiteSpace=wrap;html=1;" vertex="1" parent="1">
          <mxGeometry x="144" y="289" width="28" height="136" as="geometry" />
        </mxCell>
        <mxCell id="icSrvoCAMqPunUTu-JmH-23" value="&lt;div&gt;&lt;br&gt;&lt;/div&gt;&lt;div&gt;system&lt;/div&gt;" style="shape=umlLifeline;perimeter=lifelinePerimeter;whiteSpace=wrap;html=1;container=1;dropTarget=0;collapsible=0;recursiveResize=0;outlineConnect=0;portConstraint=eastwest;newEdgeStyle={&quot;curved&quot;:0,&quot;rounded&quot;:0};" vertex="1" parent="1">
          <mxGeometry x="340" y="164" width="100" height="356" as="geometry" />
        </mxCell>
        <mxCell id="icSrvoCAMqPunUTu-JmH-24" value="thêm thành công" style="html=1;verticalAlign=bottom;endArrow=open;dashed=1;endSize=8;curved=0;rounded=0;entryX=0.5;entryY=1;entryDx=0;entryDy=0;" edge="1" parent="1" source="icSrvoCAMqPunUTu-JmH-23" target="icSrvoCAMqPunUTu-JmH-21">
          <mxGeometry relative="1" as="geometry">
            <mxPoint x="480" y="368" as="sourcePoint" />
            <mxPoint x="400" y="368" as="targetPoint" />
          </mxGeometry>
        </mxCell>
        <mxCell id="icSrvoCAMqPunUTu-JmH-25" value="thêm vào giỏ hàng" style="html=1;verticalAlign=bottom;endArrow=block;curved=0;rounded=0;exitX=0.5;exitY=0;exitDx=0;exitDy=0;" edge="1" parent="1" source="icSrvoCAMqPunUTu-JmH-21" target="icSrvoCAMqPunUTu-JmH-23">
          <mxGeometry width="80" relative="1" as="geometry">
            <mxPoint x="400" y="368" as="sourcePoint" />
            <mxPoint x="480" y="368" as="targetPoint" />
          </mxGeometry>
        </mxCell>
        <mxCell id="icSrvoCAMqPunUTu-JmH-26" value="" style="rounded=0;whiteSpace=wrap;html=1;" vertex="1" parent="1">
          <mxGeometry x="373" y="365" width="30" height="60" as="geometry" />
        </mxCell>
        <mxCell id="icSrvoCAMqPunUTu-JmH-28" value="" style="endArrow=classic;html=1;rounded=0;entryX=1.047;entryY=0.633;entryDx=0;entryDy=0;entryPerimeter=0;" edge="1" parent="1" source="icSrvoCAMqPunUTu-JmH-23" target="icSrvoCAMqPunUTu-JmH-26">
          <mxGeometry width="50" height="50" relative="1" as="geometry">
            <mxPoint x="415" y="393" as="sourcePoint" />
            <mxPoint x="500" y="442" as="targetPoint" />
            <Array as="points">
              <mxPoint x="434" y="346" />
              <mxPoint x="432" y="403" />
            </Array>
          </mxGeometry>
        </mxCell>
        <mxCell id="icSrvoCAMqPunUTu-JmH-29" value="điều kiện" style="text;html=1;whiteSpace=wrap;strokeColor=none;fillColor=none;align=center;verticalAlign=middle;rounded=0;" vertex="1" parent="1">
          <mxGeometry x="437" y="359" width="60" height="30" as="geometry" />
        </mxCell>
        <mxCell id="icSrvoCAMqPunUTu-JmH-30" value="loop" style="shape=umlFrame;whiteSpace=wrap;html=1;pointerEvents=0;" vertex="1" parent="1">
          <mxGeometry x="59" y="264" width="484" height="200" as="geometry" />
        </mxCell>
        <mxCell id="icSrvoCAMqPunUTu-JmH-43" value="Thành phần" style="shape=rectangle;whiteSpace=wrap;html=1;fontStyle=1;align=center;verticalAlign=middle" vertex="1" parent="1">
          <mxGeometry x="88" y="609" width="200" height="40" as="geometry" />
        </mxCell>
        <mxCell id="icSrvoCAMqPunUTu-JmH-44" value="Mô tả chi tiết" style="shape=rectangle;whiteSpace=wrap;html=1;fontStyle=1;align=center;verticalAlign=middle" vertex="1" parent="1">
          <mxGeometry x="288" y="609" width="480" height="40" as="geometry" />
        </mxCell>
        <mxCell id="icSrvoCAMqPunUTu-JmH-45" value="Vị trí phần lặp (loop)" style="shape=rectangle;whiteSpace=wrap;html=1;strokeColor=#000000;align=left;verticalAlign=middle" vertex="1" parent="1">
          <mxGeometry x="88" y="649" width="200" height="60" as="geometry" />
        </mxCell>
        <mxCell id="icSrvoCAMqPunUTu-JmH-46" value="Bao quanh các thông điệp giữa Người dùng, Website và Hệ thống giỏ hàng trong quá trình thêm sản phẩm." style="shape=rectangle;whiteSpace=wrap;html=1;strokeColor=#000000;align=left;verticalAlign=middle" vertex="1" parent="1">
          <mxGeometry x="288" y="649" width="480" height="60" as="geometry" />
        </mxCell>
        <mxCell id="icSrvoCAMqPunUTu-JmH-47" value="Điều kiện lặp (loop [For each selected product])" style="shape=rectangle;whiteSpace=wrap;html=1;strokeColor=#000000;align=left;verticalAlign=middle" vertex="1" parent="1">
          <mxGeometry x="88" y="709" width="200" height="60" as="geometry" />
        </mxCell>
        <mxCell id="icSrvoCAMqPunUTu-JmH-48" value="Thực hiện mỗi khi người dùng chọn một sản phẩm mới để thêm vào giỏ hàng." style="shape=rectangle;whiteSpace=wrap;html=1;strokeColor=#000000;align=left;verticalAlign=middle" vertex="1" parent="1">
          <mxGeometry x="288" y="709" width="480" height="60" as="geometry" />
        </mxCell>
        <mxCell id="icSrvoCAMqPunUTu-JmH-49" value="Các bước được lặp lại" style="shape=rectangle;whiteSpace=wrap;html=1;strokeColor=#000000;align=left;verticalAlign=top" vertex="1" parent="1">
          <mxGeometry x="88" y="769" width="200" height="100" as="geometry" />
        </mxCell>
        <mxCell id="icSrvoCAMqPunUTu-JmH-50" value="1. Người dùng chọn sản phẩm và nhấn &#39;Thêm vào giỏ&#39;.&#xa;2. Website gửi yêu cầu đến Hệ thống giỏ hàng để thêm sản phẩm.&#xa;3. Hệ thống giỏ hàng xác nhận và trả kết quả cho Website.&#xa;4. Website cập nhật giao diện giỏ hàng hiển thị cho người dùng." style="shape=rectangle;whiteSpace=wrap;html=1;strokeColor=#000000;align=left;verticalAlign=top" vertex="1" parent="1">
          <mxGeometry x="288" y="769" width="480" height="100" as="geometry" />
        </mxCell>
        <mxCell id="icSrvoCAMqPunUTu-JmH-51" value="Điều kiện kết thúc vòng lặp" style="shape=rectangle;whiteSpace=wrap;html=1;strokeColor=#000000;align=left;verticalAlign=middle" vertex="1" parent="1">
          <mxGeometry x="88" y="869" width="200" height="60" as="geometry" />
        </mxCell>
        <mxCell id="icSrvoCAMqPunUTu-JmH-52" value="Khi người dùng ngừng chọn sản phẩm hoặc rời khỏi trang giỏ hàng, vòng lặp dừng lại." style="shape=rectangle;whiteSpace=wrap;html=1;strokeColor=#000000;align=left;verticalAlign=middle" vertex="1" parent="1">
          <mxGeometry x="288" y="869" width="480" height="60" as="geometry" />
        </mxCell>
        <mxCell id="icSrvoCAMqPunUTu-JmH-53" value="Ý nghĩa của phần lặp" style="shape=rectangle;whiteSpace=wrap;html=1;strokeColor=#000000;align=left;verticalAlign=middle" vertex="1" parent="1">
          <mxGeometry x="88" y="929" width="200" height="60" as="geometry" />
        </mxCell>
        <mxCell id="icSrvoCAMqPunUTu-JmH-54" value="Thể hiện quy trình thêm sản phẩm được lặp lại nhiều lần cho đến khi người dùng hoàn tất việc mua sắm." style="shape=rectangle;whiteSpace=wrap;html=1;strokeColor=#000000;align=left;verticalAlign=middle" vertex="1" parent="1">
          <mxGeometry x="288" y="929" width="480" height="60" as="geometry" />
        </mxCell>
      </root>
    </mxGraphModel>
  </diagram>
</mxfile>
